<svg id="visual" viewBox="0 0 900 600" width="900" height="600" xmlns="http://www.w3.org/2000/svg" xmlns:xlink="http://www.w3.org/1999/xlink" version="1.1"><rect x="0" y="0" width="900" height="600" fill="#001220"></rect><defs><linearGradient id="grad1_0" x1="33.3%" y1="100%" x2="100%" y2="0%"><stop offset="20%" stop-color="#001220" stop-opacity="1"></stop><stop offset="80%" stop-color="#001220" stop-opacity="1"></stop></linearGradient></defs><defs><linearGradient id="grad2_0" x1="0%" y1="100%" x2="66.7%" y2="0%"><stop offset="20%" stop-color="#001220" stop-opacity="1"></stop><stop offset="80%" stop-color="#001220" stop-opacity="1"></stop></linearGradient></defs><g transform="translate(900, 600)"><path d="M-293 0C-306.6 -29.6 -320.2 -59.1 -313.4 -84C-306.7 -108.9 -279.5 -129 -258.9 -149.5C-238.4 -170 -224.5 -190.7 -205.8 -205.8C-187 -220.9 -163.5 -230.3 -142.5 -246.8C-121.5 -263.3 -103 -287 -79.7 -297.5C-56.4 -308.1 -28.2 -305.5 0 -303L0 0Z" fill="#FBAE3C"></path></g><g transform="translate(0, 0)"><path d="M321 0C306.2 24.8 291.4 49.5 285.9 76.6C280.4 103.7 284.2 133.1 277.1 160C270 186.9 252 211.2 229.5 229.5C206.9 247.7 180 259.8 153 265C126 270.2 99 268.6 73.5 274.3C48 280 24 293 0 306L0 0Z" fill="#FBAE3C"></path></g></svg>